<svg xmlns="http://www.w3.org/2000/svg" width="1200" height="280" viewBox="0 0 1200 280"><defs><linearGradient id="g"><stop stop-color="#22d3ee"/><stop offset=".5" stop-color="#818cf8"/><stop offset="1" stop-color="#34d399"/></linearGradient><filter id="b"><feGaussianBlur stdDeviation="3" result="x"/><feMerge><feMergeNode in="x"/><feMergeNode in="SourceGraphic"/></feMerge></filter></defs><rect width="1200" height="280" rx="24" fill="#030712" stroke="#17283a"/><g fill="none" stroke="#1e293b"><path d="M130 140 L340 65 L575 145 L805 72 L1050 140 L875 220 L610 175 L340 215 Z"/></g><g fill="none" stroke="url(#g)" stroke-width="1.5" stroke-dasharray="4 10" opacity=".65"><path d="M130 140 L340 65 L575 145 L805 72 L1050 140"><animate attributeName="stroke-dashoffset" from="0" to="-140" dur="4s" repeatCount="indefinite"/></path><path d="M340 215 L575 145 L875 220 L1050 140"><animate attributeName="stroke-dashoffset" from="0" to="-140" dur="5s" repeatCount="indefinite"/></path></g><g fill="#67e8f9" filter="url(#b)"><circle cx="130" cy="140" r="5"/><circle cx="340" cy="65" r="5"/><circle cx="575" cy="145" r="7"><animate attributeName="r" values="6;10;6" dur="2.5s" repeatCount="indefinite"/></circle><circle cx="805" cy="72" r="5"/><circle cx="1050" cy="140" r="5"/><circle cx="875" cy="220" r="5"/><circle cx="340" cy="215" r="5"/></g><g font-family="monospace" font-size="11"><text x="86" y="175" fill="#94a3b8">VISION</text><text x="300" y="42" fill="#94a3b8">GEN AI</text><text x="520" y="125" fill="#67e8f9">AI SYSTEMS</text><text x="770" y="50" fill="#94a3b8">SECURITY</text><text x="1000" y="175" fill="#94a3b8">CLOUD</text><text x="820" y="252" fill="#94a3b8">INFRA</text><text x="285" y="247" fill="#94a3b8">RESEARCH</text></g><text x="600" y="55" text-anchor="middle" fill="#f8fafc" font-family="Inter,Arial" font-size="18" font-weight="700">ONE LAB · MANY SYSTEMS</text></svg>